{"title":"Queen.of.the.Desert.2015.BRRip.480p.x264.AAC-VYTO [P2PDL]","uid":13674650,"size":478401068,"categoryP":"video","categoryS":"movies","magnet":"?xt=urn:btih:2a3d8c0377319dd1172703139860b88be6b57d76&amp;dn=Queen.of.the.Desert.2015.BRRip.480p.x264.AAC-VYTO+%5BP2PDL%5D&amp;tr=udp%3A%2F%2Ftracker.leechers-paradise.org%3A6969&amp;tr=udp%3A%2F%2Fzer0day.ch%3A1337&amp;tr=udp%3A%2F%2Fopen.demonii.com%3A1337&amp;tr=udp%3A%2F%2Ftracker.coppersurfer.tk%3A6969&amp;tr=udp%3A%2F%2Fexodus.desync.com%3A6969","seeders":0,"leechers":3,"uploader":"VYTOP2PDL","files":6,"time":1456377141,"description":"Queen.of.the.Desert.2015.BRRip.480p.x264.AAC-VYTO\r\n\r\n\r\nGenre: Biography, Drama, History  \nhttp://www.imdb.com/title/tt1837636/\r\n\r\n\r\nFormat                                   : MPEG-4\r\nFile size                                : 452 MiB\r\nDuration                                 : 2h 8mn\r\nOverall bit rate                         : 493 Kbps\r\n\r\nVideo\r\nFormat                                   : AVC\r\nBit rate                                 : 458 Kbps\r\nWidth                                    : 720 pixels\r\nHeight                                   : 304 pixels\r\nDisplay aspect ratio                     : 2.35:1\r\nFrame rate mode                          : Constant\r\nFrame rate                               : 24.000 fps\r\nBit depth                                : 8 bits\r\nStream size                              : 420 MiB (93%)\r\nWriting library                          : x264\r\n\r\nAudio\r\nFormat                                   : AAC\r\nBit rate mode                            : Variable\r\nBit rate                                 : 32.0 Kbps\r\nChannel(s)                               : 2 channels\r\nChannel positions                        : Front: L R \r\nSampling rate                            : 48.0 KHz \r\nFrame rate                               : 23.438 fps\r\nStream size                              : 29.3 MiB (6%)\r\nLanguage                                 : English\r\n\r\nSubtitle                                 : N/a\r\n\r\nScreen Shots: (Click to view)\r\n \nhttp://ititli.com/XgV \nhttp://ititli.com/Xgt \nhttp://ititli.com/XgL \nhttp://ititli.com/Xgd \nhttp://ititli.com/Xg0 \nhttp://ititli.com/XgA \nhttp://ititli.com/Xgl \nhttp://ititli.com/Xgm \nhttp://ititli.com/Xgx\r\n\r\n----------------------------------------------------------------------------------------------------\r\n\r\n\r\nEncoder Notes: Looking For Early Access To Anything You Can Provide WEBDL, DVDScr, DVDR, BluRay,\r\nDirect Audio, Music Releases and Seedboxes. If You Got anything to offer please contact us.\r\n\r\nSupport us by donating BC - 1FgwdzPsd1y25Gea8wP1qni35uGCtmkRCD\r\n\r\nSend some love!\r\nFind us and join us!","torrent":{"xt":"urn:btih:2a3d8c0377319dd1172703139860b88be6b57d76","amp;dn":"Queen.of.the.Desert.2015.BRRip.480p.x264.AAC-VYTO+%5BP2PDL%5D","amp;tr":["udp%3A%2F%2Ftracker.leechers-paradise.org%3A6969","udp%3A%2F%2Fzer0day.ch%3A1337","udp%3A%2F%2Fopen.demonii.com%3A1337","udp%3A%2F%2Ftracker.coppersurfer.tk%3A6969","udp%3A%2F%2Fexodus.desync.com%3A6969"],"infoHash":"2a3d8c0377319dd1172703139860b88be6b57d76","infoHashBuffer":{"type":"Buffer","data":[42,61,140,3,119,49,157,209,23,39,3,19,152,96,184,139,230,181,125,118]},"announce":[],"urlList":[]}}